HIERARCHY
ROOT Hips
{
	OFFSET -13.091600 -28.302996 44.698402
	CHANNELS 6 Xposition Yposition Zposition Zrotation Xrotation Yrotation
	JOINT Chest
	{
		OFFSET -0.673000 0.623899 5.369202
		CHANNELS 6 Xposition Yposition Zposition Zrotation Xrotation Yrotation
		JOINT Chest2
		{
			OFFSET 0.000000 0.000000 4.415001
			CHANNELS 6 Xposition Yposition Zposition Zrotation Xrotation Yrotation
			JOINT Neck
			{
				OFFSET 0.000000 0.000002 10.273300
				CHANNELS 6 Xposition Yposition Zposition Zrotation Xrotation Yrotation
				JOINT Head
				{
					OFFSET 0.000000 0.000000 2.173897
					CHANNELS 6 Xposition Yposition Zposition Zrotation Xrotation Yrotation
					End Site
					{
						OFFSET 0.000000 0.000000 9.961800
					}
				}
			}
			JOINT LeftCollar
			{
				OFFSET 2.359900 -0.565201 5.928101
				CHANNELS 6 Xposition Yposition Zposition Zrotation Xrotation Yrotation
				JOINT LeftShoulder
				{
					OFFSET 5.443700 0.000000 0.000000
					CHANNELS 6 Xposition Yposition Zposition Zrotation Xrotation Yrotation
					JOINT LeftElbow
					{
						OFFSET 0.000000 0.000000 -10.615799
						CHANNELS 6 Xposition Yposition Zposition Zrotation Xrotation Yrotation
						JOINT LeftWrist
						{
							OFFSET 0.000000 -0.000002 -13.110302
							CHANNELS 6 Xposition Yposition Zposition Zrotation Xrotation Yrotation
							End Site
							{
								OFFSET 0.000000 0.000000 -2.173901
							}
						}
					}
				}
			}
			JOINT RightCollar
			{
				OFFSET -2.636600 -1.718800 6.889698
				CHANNELS 6 Xposition Yposition Zposition Zrotation Xrotation Yrotation
				JOINT RightShoulder
				{
					OFFSET -4.139101 0.000000 0.000000
					CHANNELS 6 Xposition Yposition Zposition Zrotation Xrotation Yrotation
					JOINT RightElbow
					{
						OFFSET 0.000000 0.000000 -10.471802
						CHANNELS 6 Xposition Yposition Zposition Zrotation Xrotation Yrotation
						JOINT RightWrist
						{
							OFFSET 0.000000 0.000000 -12.281898
							CHANNELS 6 Xposition Yposition Zposition Zrotation Xrotation Yrotation
							End Site
							{
								OFFSET 0.000000 -0.000002 -2.173901
							}
						}
					}
				}
			}
		}
	}
	JOINT LeftHip
	{
		OFFSET 2.273400 0.176701 -2.518002
		CHANNELS 6 Xposition Yposition Zposition Zrotation Xrotation Yrotation
		JOINT LeftKnee
		{
			OFFSET 0.000000 -0.000002 -20.456402
			CHANNELS 6 Xposition Yposition Zposition Zrotation Xrotation Yrotation
			JOINT LeftAnkle
			{
				OFFSET 0.000000 -0.000002 -16.635300
				CHANNELS 6 Xposition Yposition Zposition Zrotation Xrotation Yrotation
				End Site
				{
					OFFSET 0.000000 -8.812399 0.000001
				}
			}
		}
	}
	JOINT RightHip
	{
		OFFSET -1.914800 0.018101 -2.699299
		CHANNELS 6 Xposition Yposition Zposition Zrotation Xrotation Yrotation
		JOINT RightKnee
		{
			OFFSET 0.000000 -0.000002 -20.148901
			CHANNELS 6 Xposition Yposition Zposition Zrotation Xrotation Yrotation
			JOINT RightAnkle
			{
				OFFSET 0.000000 -0.000002 -16.838301
				CHANNELS 6 Xposition Yposition Zposition Zrotation Xrotation Yrotation
				End Site
				{
					OFFSET 0.000000 -8.328398 0.000001
				}
			}
		}
	}
}
MOTION
Frames: 5
Frame Time: 0.041667
-22.352303 54.318520 45.404705 1331.718155 -4.833180 -2.724245 -0.672998 0.623897 5.369200 -10.176149 6.477208 6.554308 -0.000004 0.000001 4.415004 2.626124 -0.445094 -0.076985 -0.000001 0.000004 10.273313 -18.868729 1.209434 2.591843 -0.000003 -0.000003 2.173900 0.458491 -1.787758 -1.497818 2.359901 -0.565199 5.928104 -1.812386 -1.664029 -7.962656 5.443703 -0.000006 0.000003 -33.675981 8.493947 -11.313233 0.000002 -0.000006 -10.615805 562.064190 -172.801628 181.171137 -0.000004 -0.000011 -13.110300 -186.873347 -178.204020 174.609196 -2.636602 -1.718794 6.889701 187.683203 -184.878891 168.251479 -4.139112 0.000000 0.000001 293.540084 -387.236072 375.429844 0.000000 -0.000004 -10.471802 -39.633682 -28.212626 -393.816359 0.000001 0.000001 -12.281898 372.818035 -13.898148 8.389432 2.273399 0.176696 -2.518006 -172.777572 -181.001748 -181.890342 -0.000005 -0.000007 -20.456398 165.962723 149.002052 -175.718583 -0.000001 -0.000000 -16.635298 -3.591962 20.376859 1.094393 -1.914798 0.018097 -2.699298 142.172642 199.678122 184.666800 -0.000000 -0.000014 -20.148899 28.460374 32.808742 2.754890 -0.000000 -0.000004 -16.838301 34.104357 7.590045 -13.414825
-22.337303 54.618210 45.435505 1333.905127 -5.118807 -2.741447 -0.673009 0.623899 5.369205 -10.099065 6.853426 6.603736 0.000002 -0.000001 4.414999 2.597740 -0.437241 -0.077060 -0.000002 0.000001 10.273304 -18.657700 1.549052 2.601060 -0.000002 -0.000002 2.173894 0.726134 -1.874017 -1.603732 2.359898 -0.565200 5.928102 -1.870563 -1.760404 -8.079837 5.443702 -0.000003 0.000002 -33.589364 8.621799 -11.196980 0.000001 0.000001 -10.615790 562.041076 -172.860545 181.151015 0.000002 -0.000001 -13.110294 -186.725105 -178.262487 174.676624 -2.636603 -1.718805 6.889698 188.069150 -185.059918 168.473050 -4.139100 0.000003 0.000005 290.475077 -387.324073 373.918870 0.000001 0.000002 -10.471797 -35.868226 -27.343283 -392.233175 -0.000001 0.000003 -12.281901 372.651160 -13.364163 8.807376 2.273392 0.176702 -2.517995 -172.088952 -180.716150 -182.190105 -0.000002 -0.000001 -20.456396 165.198302 148.174438 -175.377333 -0.000007 -0.000002 -16.635303 -2.586709 20.319874 1.278566 -1.914808 0.018104 -2.699298 143.555809 198.611519 185.741967 0.000000 0.000004 -20.148899 27.106876 32.447152 2.437150 0.000007 -0.000002 -16.838303 32.248434 8.267525 -13.214003
-22.320902 54.925507 45.466103 1336.135375 -5.100972 -2.743339 -0.673002 0.623900 5.369204 -9.925137 6.999567 6.600844 0.000005 -0.000004 4.415005 2.510974 -0.385552 -0.070374 -0.000011 -0.000003 10.273306 -18.462288 1.647765 2.495037 -0.000008 -0.000008 2.173913 0.931379 -1.819585 -1.676816 2.359895 -0.565204 5.928103 -1.901792 -1.959069 -8.127077 5.443693 -0.000004 0.000000 -33.789106 8.759775 -11.179334 0.000000 -0.000003 -10.615797 561.959715 -173.031054 181.109310 0.000005 0.000002 -13.110298 -186.438305 -178.356730 174.782533 -2.636612 -1.718802 6.889699 188.042239 -184.973803 168.524468 -4.139100 0.000004 0.000010 287.851301 -387.441169 372.728641 -0.000001 -0.000002 -10.471801 -32.005771 -26.554705 -390.626278 0.000000 -0.000015 -12.281900 372.280636 -12.873076 9.237897 2.273400 0.176703 -2.518006 -171.133450 -180.037790 -182.477888 -0.000002 -0.000009 -20.456402 164.215971 147.301376 -175.107691 0.000001 -0.000000 -16.635303 -1.753324 20.269749 1.383641 -1.914800 0.018106 -2.699302 144.911903 197.738744 186.504613 -0.000007 -0.000007 -20.148899 25.538545 32.086668 2.235178 0.000001 0.000003 -16.838303 30.446845 9.087690 -13.102248
-22.304701 55.235909 45.493504 1338.377098 -4.868937 -2.818507 -0.673004 0.623896 5.369202 -9.645386 6.957854 6.647758 -0.000004 0.000003 4.415005 2.390544 -0.356068 -0.066104 -0.000002 0.000003 10.273288 -18.214885 1.631844 2.333220 0.000000 -0.000004 2.173895 1.036601 -1.727119 -1.684783 2.359901 -0.565200 5.928097 -1.934812 -2.162944 -8.163451 5.443695 -0.000004 -0.000002 -34.159074 8.851156 -11.209445 -0.000000 -0.000011 -10.615783 561.820653 -173.322621 181.051417 0.000000 0.000001 -13.110302 -186.157707 -178.446123 175.662739 -2.636599 -1.718802 6.889698 187.702942 -184.696511 168.499865 -4.139100 -0.000001 0.000005 285.518655 -387.630693 371.679934 -0.000004 -0.000006 -10.471795 -27.961541 -25.668498 -388.677816 0.000004 0.000009 -12.281898 371.826619 -12.483235 9.538993 2.273396 0.176696 -2.518012 -170.154765 -179.056756 -182.546655 -0.000004 -0.000005 -20.456400 163.302624 146.322869 -175.028898 -0.000003 0.000004 -16.635300 -1.129259 20.214447 1.490284 -1.914801 0.018099 -2.699300 146.269075 197.052296 187.149096 -0.000002 -0.000005 -20.148901 23.974408 31.689383 1.976979 0.000008 -0.000003 -16.838303 28.837820 9.995360 -13.034889
-22.290901 55.550606 45.516602 1340.625924 -4.518371 -2.912187 -0.673006 0.623894 5.369204 -9.376847 6.789562 6.733618 0.000005 -0.000003 4.415000 2.314942 -0.312279 -0.060035 -0.000001 -0.000000 10.273312 -17.882012 1.574907 2.111089 0.000000 0.000000 2.173888 1.035017 -1.625937 -1.649252 2.359896 -0.565206 5.928108 -0.744325 0.326336 -8.288601 5.443696 -0.000001 0.000001 -35.126915 6.473995 -12.840213 0.000006 -0.000006 -10.615788 561.467231 -173.716067 180.953841 0.000006 -0.000004 -13.110294 -185.633176 -178.540571 175.804712 -2.636605 -1.718805 6.889700 187.253434 -184.382295 168.484115 -4.139103 -0.000001 0.000005 283.254857 -387.788662 370.617867 0.000000 0.000001 -10.471807 -23.901212 -24.642873 -386.650916 0.000003 0.000003 -12.281895 371.503633 -12.223052 9.668902 2.273400 0.176700 -2.518005 -169.142682 -177.894121 -182.558485 -0.000003 -0.000004 -20.456398 162.129785 145.301292 -174.854933 -0.000002 0.000001 -16.635302 -0.205793 20.194122 0.676859 -1.914802 0.018099 -2.699296 147.757346 196.414630 187.744661 0.000002 -0.000001 -20.148899 22.346560 31.223045 1.623074 0.000007 0.000002 -16.838301 27.078734 11.073842 -13.084040
